<svg width="431" height="257" viewBox="0 0 431 257" fill="none" xmlns="http://www.w3.org/2000/svg">
<g clip-path="url(#clip0_1690_34)">
<path d="M180.5 180.499C98.5 186.499 26 233.999 0 256.999V7H430L431 200.999C395 234.999 283 172.999 180.5 180.499Z" fill="#AED9FF"/>
<path d="M261 179.5C88.2 150.3 15 213 0 248V7H437L455.5 21.5C462.667 86.3332 433.8 208.7 261 179.5Z" fill="#2C74B3"/>
<path d="M141 125.5C92.6 115.9 26.5 143.5 -0.5 158.5L-22 -9L-66 -23H447.5C455.667 -2.66667 464.7 52.9 435.5 112.5C399 187 267.5 176.5 244 173C220.5 169.5 201.5 137.5 141 125.5Z" fill="#0A2647"/>
<path d="M209.5 149.501C130 79.5006 38.5 136.501 -0.999954 154C-20.5 133.834 -60.9 97.8 -66.5 97C-72.1 96.2 66.1667 75.3333 136 65H285.5C329.5 70.3333 421.6 84.2 434 117C449.5 158 289 219.501 209.5 149.501Z" fill="#0A2647"/>
<path d="M363 174.5C303.4 187.7 251.167 176.333 232.5 169L320 121.5L441.5 110C440.167 126 422.6 161.3 363 174.5Z" fill="#0A2647"/>
</g>
<defs>
<clipPath id="clip0_1690_34">
<rect width="431" height="257" fill="white"/>
</clipPath>
</defs>
</svg>
